<svg width="150" height="47" viewBox="0 0 150 47" fill="none" xmlns="http://www.w3.org/2000/svg">
<path d="M15.7938 18.8851C15.7938 20.0047 15.5311 21.0609 15.0057 22.0537C14.4803 23.0465 13.6397 23.8598 12.4838 24.4935C11.3278 25.1061 9.84619 25.4124 8.03878 25.4124H4.06668V34.3479H0.472874V12.3261H8.03878C9.72009 12.3261 11.1387 12.6218 12.2946 13.2133C13.4715 13.7836 14.3437 14.5652 14.9111 15.5581C15.4996 16.5509 15.7938 17.6599 15.7938 18.8851ZM8.03878 22.4656C9.40485 22.4656 10.4241 22.1593 11.0967 21.5467C11.7692 20.913 12.1055 20.0258 12.1055 18.8851C12.1055 16.4769 10.7499 15.2729 8.03878 15.2729H4.06668V22.4656H8.03878Z" fill="white"/>
<path d="M28.3951 34.3479L23.3511 25.5392H20.6085V34.3479H17.0147V12.3261H24.5806C26.2619 12.3261 27.6805 12.6218 28.8364 13.2133C30.0133 13.8048 30.8855 14.5969 31.4529 15.5897C32.0414 16.5826 32.3356 17.6916 32.3356 18.9168C32.3356 20.3532 31.9153 21.6629 31.0746 22.8458C30.255 24.0077 28.9835 24.7998 27.2602 25.2223L32.6824 34.3479H28.3951ZM20.6085 22.6557H24.5806C25.9256 22.6557 26.9344 22.3177 27.6069 21.6418C28.3005 20.9658 28.6473 20.0575 28.6473 18.9168C28.6473 17.7761 28.311 16.8889 27.6385 16.2551C26.9659 15.6003 25.9466 15.2729 24.5806 15.2729H20.6085V22.6557Z" fill="white"/>
<path d="M83.5136 12.3261V15.2729H74.2139V21.7685H81.4645V24.7153H74.2139V34.3479H70.62V12.3261H83.5136Z" fill="white"/>
<path d="M88.2312 12.3261V34.3479H84.6374V12.3261H88.2312Z" fill="white"/>
<path d="M94.3367 31.4328H101.745V34.3479H90.7428V12.3261H94.3367V31.4328Z" fill="white"/>
<path d="M106.137 12.3261V34.3479H102.544V12.3261H106.137Z" fill="white"/>
<path d="M126.65 34.3479H123.056L112.243 17.9028V34.3479H108.649V12.2944H112.243L123.056 28.7078V12.2944H126.65V34.3479Z" fill="white"/>
<path d="M145.019 18.6633C144.452 17.5648 143.664 16.741 142.655 16.1918C141.646 15.6214 140.48 15.3363 139.156 15.3363C137.705 15.3363 136.413 15.6637 135.278 16.3185C134.143 16.9734 133.25 17.9028 132.598 19.1069C131.968 20.311 131.653 21.7051 131.653 23.2894C131.653 24.8738 131.968 26.2785 132.598 27.5037C133.25 28.7078 134.143 29.6372 135.278 30.2921C136.413 30.9469 137.705 31.2743 139.156 31.2743C141.11 31.2743 142.697 30.7251 143.916 29.6267C145.135 28.5282 145.881 27.039 146.154 25.1589H137.926V22.2755H150V25.0956C149.769 26.8066 149.159 28.3803 148.172 29.8168C147.205 31.2532 145.933 32.4045 144.357 33.2706C142.802 34.1155 141.068 34.538 139.156 34.538C137.096 34.538 135.215 34.0627 133.513 33.1121C131.81 32.1404 130.455 30.799 129.446 29.088C128.458 27.377 127.964 25.4441 127.964 23.2894C127.964 21.1348 128.458 19.202 129.446 17.4909C130.455 15.7799 131.81 14.449 133.513 13.4985C135.236 12.5268 137.117 12.0409 139.156 12.0409C141.488 12.0409 143.558 12.6218 145.366 13.7836C147.194 14.9243 148.518 16.5509 149.338 18.6633H145.019Z" fill="white"/>
<path d="M63.564 32.884C65.946 29.6165 67.0129 25.5654 66.5512 21.5412C66.0895 17.5169 64.1333 13.8163 61.074 11.1797C58.0147 8.54306 54.0779 7.16487 50.0511 7.32085C46.0244 7.47682 42.2047 9.15545 39.3563 12.0209C36.5079 14.8864 34.8408 18.7273 34.6885 22.7754C34.5362 26.8234 35.91 30.78 38.535 33.8535C41.16 36.927 44.8427 38.8908 48.8462 39.3521C52.8497 39.8133 56.8788 38.7379 60.1275 36.3411H60.125C60.1972 36.44 60.2775 36.5348 60.3661 36.6255L69.8369 46.1461C70.2982 46.6102 70.9239 46.871 71.5765 46.8712C72.229 46.8714 72.8549 46.6111 73.3165 46.1474C73.7781 45.6837 74.0376 45.0547 74.0378 44.3987C74.038 43.7427 73.779 43.1135 73.3178 42.6495L63.8469 33.1288C63.759 33.0393 63.6645 32.9591 63.564 32.884ZM64.1987 23.3782C64.1987 25.1643 63.8488 26.9329 63.1688 28.583C62.4889 30.2332 61.4923 31.7325 60.2359 32.9955C58.9796 34.2585 57.4881 35.2603 55.8466 35.9438C54.2051 36.6273 52.4457 36.9791 50.669 36.9791C48.8922 36.9791 47.1329 36.6273 45.4914 35.9438C43.8499 35.2603 42.3584 34.2585 41.102 32.9955C39.8456 31.7325 38.8491 30.2332 38.1691 28.583C37.4892 26.9329 37.1392 25.1643 37.1392 23.3782C37.1392 19.771 38.5647 16.3115 41.102 13.7609C43.6393 11.2102 47.0807 9.77723 50.669 9.77723C54.2573 9.77723 57.6986 11.2102 60.2359 13.7609C62.7733 16.3115 64.1987 19.771 64.1987 23.3782Z" fill="#FF5F47"/>
<path d="M55.0831 27.1869C54.5629 27.0239 53.713 26.9738 53.3415 26.8442C53.0814 26.7522 52.6681 26.6561 52.538 26.5098C52.4033 26.3677 52.4033 25.3354 52.4033 25.3354C52.4033 25.3354 52.7284 25.0638 52.8631 24.7587C52.9978 24.4536 53.086 23.6261 53.086 23.6261C53.086 23.6261 53.1139 23.6345 53.1557 23.6345C53.2532 23.6345 53.4297 23.5759 53.5133 23.1914C53.6155 22.7192 53.8105 22.4726 53.7595 22.1257C53.7223 21.8917 53.6108 21.8541 53.5458 21.8541C53.5133 21.8541 53.4901 21.8624 53.4901 21.8624C53.4901 21.8624 53.7548 21.5113 53.7548 20.3161C53.7548 19.0873 52.7006 17.8753 50.7546 17.8711C48.804 17.8753 47.7544 19.0873 47.7544 20.3161C47.7544 21.5072 48.0192 21.8624 48.0192 21.8624C48.0192 21.8624 47.9959 21.8541 47.9634 21.8541C47.8938 21.8541 47.7823 21.8917 47.7498 22.1257C47.6987 22.4726 47.8891 22.7234 47.9959 23.1914C48.0795 23.5759 48.256 23.6345 48.3535 23.6345C48.3953 23.6345 48.4232 23.6261 48.4232 23.6261C48.4232 23.6261 48.5114 24.4578 48.6461 24.7587C48.7808 25.0638 49.1059 25.3354 49.1059 25.3354C49.1059 25.3354 49.1059 26.3677 48.9712 26.5098C48.8365 26.6519 48.4279 26.7522 48.1678 26.8442C47.7962 26.9738 46.9463 27.0239 46.4262 27.1869C45.906 27.3499 44.2991 28.0311 44.2991 29.9118H57.2101C57.2101 28.0311 55.6079 27.3499 55.0831 27.1869Z" fill="white"/>
<path d="M45.5577 26.6519C45.9757 26.4639 46.3844 26.4639 46.7002 26.4263C46.7002 26.4263 46.8767 26.1671 46.2961 26.0752C46.2961 26.0752 45.502 25.8955 45.4091 25.7952C45.3162 25.6949 45.3719 25.139 45.3719 25.139C45.3719 25.139 46.4819 25.1056 46.9231 24.7545C46.2033 23.7849 46.5887 22.6523 46.4401 21.5949C46.2961 20.5417 45.5949 19.8814 44.2527 19.8814C44.248 19.8814 44.2527 19.8814 44.2062 19.8814C42.9058 19.8814 42.2371 20.5417 42.0885 21.5991C41.9398 22.6565 42.3671 23.9145 41.6287 24.7629C42.042 25.093 43.0637 25.1098 43.1799 25.1098C43.1891 25.1098 43.1891 25.1098 43.1891 25.1098L43.1938 25.1056C43.1938 25.1056 43.2402 25.6991 43.1473 25.7994C43.0545 25.8997 42.7804 25.9916 42.5947 26.0292C42.186 26.1086 41.7541 26.2382 41.3965 26.351C41.0388 26.4597 40.3515 27.1117 40.3515 27.9057H44.0762C44.1784 27.5714 44.8796 26.9612 45.5577 26.6519Z" fill="white"/>
<path d="M57.4331 27.9057H61.1577C61.1577 27.1117 60.4704 26.4597 60.1128 26.3469C59.7552 26.234 59.3186 26.1045 58.9146 26.025C58.7242 25.9874 58.4548 25.8955 58.3619 25.7952C58.269 25.6949 58.3155 25.1014 58.3155 25.1014L58.3201 25.1056C58.3201 25.1056 58.3248 25.1056 58.3294 25.1056C58.4455 25.1056 59.4719 25.0931 59.8852 24.7587C59.1468 23.9103 59.5694 22.6523 59.4208 21.5949C59.2722 20.5417 58.6034 19.8814 57.303 19.8814C57.2566 19.8814 57.2566 19.8814 57.2566 19.8814C55.9144 19.8814 55.2085 20.5417 55.0645 21.5991C54.9159 22.6565 55.3013 23.7891 54.5815 24.7587C55.0227 25.1098 56.1327 25.1432 56.1327 25.1432C56.1327 25.1432 56.1884 25.6991 56.0955 25.7994C56.0026 25.8997 55.2085 26.0794 55.2085 26.0794C54.6279 26.1713 54.8044 26.4304 54.8044 26.4304C55.1202 26.4681 55.5336 26.4681 55.9469 26.6561C56.6296 26.9612 57.3309 27.5714 57.4331 27.9057Z" fill="white"/>
<path d="M12.4239 3.70431C12.7769 3.76768 13.0764 3.95463 13.3223 4.26515C13.5682 4.57567 13.6911 4.92739 13.6911 5.3203C13.6911 5.65617 13.6029 5.96035 13.4263 6.23285C13.2561 6.49902 13.0071 6.71131 12.6792 6.86974C12.3513 7.02184 11.9699 7.09788 11.5349 7.09788H8.90571V0.491342H11.4119C11.8596 0.491342 12.2442 0.567389 12.5657 0.719482C12.8873 0.871575 13.13 1.07753 13.2939 1.33736C13.4579 1.59085 13.5398 1.87602 13.5398 2.19288C13.5398 2.57312 13.4389 2.88998 13.2372 3.14346C13.0354 3.39695 12.7643 3.5839 12.4239 3.70431ZM9.98385 3.26704H11.3173C11.6704 3.26704 11.9447 3.18782 12.1401 3.02939C12.3419 2.86463 12.4428 2.63015 12.4428 2.32596C12.4428 2.02812 12.3419 1.79681 12.1401 1.63204C11.9447 1.46094 11.6704 1.37538 11.3173 1.37538H9.98385V3.26704ZM11.4403 6.21384C11.806 6.21384 12.0928 6.12512 12.3009 5.94768C12.509 5.77024 12.613 5.52309 12.613 5.20623C12.613 4.88303 12.5027 4.62637 12.282 4.43625C12.0613 4.24614 11.7681 4.15108 11.4025 4.15108H9.98385V6.21384H11.4403Z" fill="white"/>
<path d="M15.0897 0.491342V7.09788H14.0116V0.491342H15.0897Z" fill="white"/>
<path d="M16.6944 6.15681H19.7491V7.09788H15.4176V6.25187L18.4629 1.43242H15.4176V0.491342H19.7491V1.33736L16.6944 6.15681Z" fill="white"/>
<path d="M23.5946 3.70431C23.9477 3.76768 24.2472 3.95463 24.4931 4.26515C24.739 4.57567 24.8619 4.92739 24.8619 5.3203C24.8619 5.65617 24.7737 5.96035 24.5971 6.23285C24.4269 6.49902 24.1779 6.71131 23.85 6.86974C23.5221 7.02184 23.1407 7.09788 22.7057 7.09788H20.0765V0.491342H22.5827C23.0304 0.491342 23.415 0.567389 23.7365 0.719482C24.0581 0.871575 24.3008 1.07753 24.4647 1.33736C24.6287 1.59085 24.7106 1.87602 24.7106 2.19288C24.7106 2.57312 24.6097 2.88998 24.408 3.14346C24.2062 3.39695 23.9351 3.5839 23.5946 3.70431ZM21.1546 3.26704H22.4881C22.8412 3.26704 23.1155 3.18782 23.3109 3.02939C23.5127 2.86463 23.6136 2.63015 23.6136 2.32596C23.6136 2.02812 23.5127 1.79681 23.3109 1.63204C23.1155 1.46094 22.8412 1.37538 22.4881 1.37538H21.1546V3.26704ZM22.6111 6.21384C22.9768 6.21384 23.2636 6.12512 23.4717 5.94768C23.6798 5.77024 23.7838 5.52309 23.7838 5.20623C23.7838 4.88303 23.6735 4.62637 23.4528 4.43625C23.2321 4.24614 22.9389 4.15108 22.5732 4.15108H21.1546V6.21384H22.6111Z" fill="white"/>
<path d="M28.1804 7.16442C27.5688 7.16442 27.0045 7.02184 26.4875 6.73666C25.9768 6.44515 25.5701 6.04274 25.2675 5.52942C24.9712 5.00977 24.823 4.42675 24.823 3.78035C24.823 3.13396 24.9712 2.5541 25.2675 2.04079C25.5701 1.52748 25.9768 1.12823 26.4875 0.843058C27.0045 0.551546 27.5688 0.40579 28.1804 0.40579C28.7983 0.40579 29.3625 0.551546 29.8732 0.843058C30.3902 1.12823 30.7969 1.52748 31.0932 2.04079C31.3896 2.5541 31.5377 3.13396 31.5377 3.78035C31.5377 4.42675 31.3896 5.00977 31.0932 5.52942C30.7969 6.04274 30.3902 6.44515 29.8732 6.73666C29.3625 7.02184 28.7983 7.16442 28.1804 7.16442ZM28.1804 6.22335C28.6154 6.22335 29.0032 6.12512 29.3436 5.92867C29.6841 5.72588 29.9489 5.4407 30.138 5.07314C30.3335 4.69925 30.4312 4.26832 30.4312 3.78035C30.4312 3.29239 30.3335 2.86463 30.138 2.49707C29.9489 2.12951 29.6841 1.84751 29.3436 1.65105C29.0032 1.4546 28.6154 1.35637 28.1804 1.35637C27.7453 1.35637 27.3576 1.4546 27.0171 1.65105C26.6766 1.84751 26.4087 2.12951 26.2132 2.49707C26.0241 2.86463 25.9295 3.29239 25.9295 3.78035C25.9295 4.26832 26.0241 4.69925 26.2132 5.07314C26.4087 5.4407 26.6766 5.72588 27.0171 5.92867C27.3576 6.12512 27.7453 6.22335 28.1804 6.22335Z" fill="white"/>
<path d="M34.7644 3.79937L36.8072 7.09788H35.5967L34.1118 4.70242L32.7216 7.09788H31.5205L33.5633 3.79937L31.5111 0.491342H32.7216L34.2159 2.90582L35.6156 0.491342H36.8167L34.7644 3.79937Z" fill="white"/>
<path d="M0.207029 0.126953L6.72839 0.126953C6.84273 0.126953 6.93542 0.220117 6.93542 0.335041L6.93542 6.8898C6.93542 7.00472 6.84273 7.09789 6.72839 7.09789H0.207028C0.0926897 7.09789 -2.41531e-08 7.00472 0 6.8898L1.37759e-06 0.335041C1.40174e-06 0.220117 0.0926912 0.126953 0.207029 0.126953Z" fill="#123257"/>
<path d="M2.72334 2.7599H4.21237C4.26954 2.7599 4.31588 2.80649 4.31588 2.86395V4.36061C4.31588 4.41807 4.26954 4.46465 4.21237 4.46465H2.72334C2.66617 4.46465 2.61982 4.41807 2.61982 4.36061L2.61982 2.86395C2.61982 2.80649 2.66617 2.7599 2.72334 2.7599Z" fill="#FF5F47"/>
<path d="M4.87398 2.7599H6.36302C6.42018 2.7599 6.46653 2.80649 6.46653 2.86395V4.36061C6.46653 4.41807 6.42018 4.46465 6.36301 4.46465H4.87398C4.81681 4.46465 4.77047 4.41807 4.77047 4.36061V2.86395C4.77047 2.80649 4.81681 2.7599 4.87398 2.7599Z" fill="white"/>
<path d="M4.87398 4.89695H6.36302C6.42018 4.89695 6.46653 4.94353 6.46653 5.00099V6.49765C6.46653 6.55512 6.42018 6.6017 6.36301 6.6017H4.87398C4.81681 6.6017 4.77047 6.55512 4.77047 6.49765V5.00099C4.77047 4.94353 4.81681 4.89695 4.87398 4.89695Z" fill="white"/>
<path d="M2.72334 4.89695H4.21237C4.26954 4.89695 4.31588 4.94353 4.31588 5.00099L4.31588 6.49765C4.31588 6.55512 4.26954 6.6017 4.21237 6.6017H2.72334C2.66617 6.6017 2.61982 6.55512 2.61982 6.49765L2.61982 5.00099C2.61982 4.94353 2.66617 4.89695 2.72334 4.89695Z" fill="white"/>
<path d="M0.597698 4.89695H2.08673C2.1439 4.89695 2.19025 4.94353 2.19025 5.00099L2.19025 6.49765C2.19025 6.55512 2.1439 6.6017 2.08673 6.6017H0.597697C0.540528 6.6017 0.494184 6.55512 0.494184 6.49765L0.494184 5.00099C0.494184 4.94353 0.540529 4.89695 0.597698 4.89695Z" fill="white"/>
<path d="M0.597698 2.7599H2.08673C2.1439 2.7599 2.19025 2.80649 2.19025 2.86395L2.19025 4.36061C2.19025 4.41807 2.1439 4.46465 2.08673 4.46465H0.597698C0.540529 4.46465 0.494184 4.41807 0.494184 4.36061L0.494184 2.86395C0.494184 2.80649 0.540529 2.7599 0.597698 2.7599Z" fill="white"/>
<path d="M0.597698 0.555305L2.08673 0.555305C2.1439 0.555305 2.19025 0.601887 2.19025 0.659349L2.19025 2.15601C2.19025 2.21347 2.1439 2.26005 2.08673 2.26005H0.597697C0.540528 2.26005 0.494184 2.21347 0.494184 2.15601L0.494184 0.659349C0.494184 0.601887 0.540529 0.555305 0.597698 0.555305Z" fill="white"/>
<path d="M2.72334 0.555305L4.21237 0.555305C4.26954 0.555305 4.31588 0.601887 4.31588 0.659349L4.31588 2.15601C4.31588 2.21347 4.26954 2.26005 4.21237 2.26005H2.72334C2.66617 2.26005 2.61982 2.21347 2.61982 2.15601L2.61982 0.659349C2.61982 0.601887 2.66617 0.555305 2.72334 0.555305Z" fill="white"/>
<path d="M4.87398 0.555305L6.36302 0.555305C6.42018 0.555305 6.46653 0.601887 6.46653 0.659349V2.15601C6.46653 2.21347 6.42018 2.26005 6.36301 2.26005H4.87398C4.81681 2.26005 4.77047 2.21347 4.77047 2.15601V0.659349C4.77047 0.601887 4.81681 0.555305 4.87398 0.555305Z" fill="white"/>
</svg>
