<svg width="512" height="512" viewBox="0 0 512 512" fill="none" xmlns="http://www.w3.org/2000/svg">
<path d="M496.716 0H15.2836C6.84269 0 0 6.84269 0 15.2836V496.716C0 505.157 6.84269 512 15.2836 512H496.716C505.157 512 512 505.157 512 496.716V15.2836C512 6.84269 505.157 0 496.716 0Z" fill="#123257"/>
<path d="M310.965 193.396H201.038C196.818 193.396 193.396 196.818 193.396 201.038V310.965C193.396 315.185 196.818 318.606 201.038 318.606H310.965C315.185 318.606 318.606 315.185 318.606 310.965V201.038C318.606 196.818 315.185 193.396 310.965 193.396Z" fill="#FF5F47"/>
<path d="M152.187 193.396H42.2605C38.0401 193.396 34.6187 196.818 34.6187 201.038V310.965C34.6187 315.185 38.0401 318.606 42.2605 318.606H152.187C156.407 318.606 159.829 315.185 159.829 310.965V201.038C159.829 196.818 156.407 193.396 152.187 193.396Z" fill="white"/>
<path d="M152.187 350.363H42.2605C38.0401 350.363 34.6187 353.785 34.6187 358.005V467.931C34.6187 472.152 38.0401 475.573 42.2605 475.573H152.187C156.407 475.573 159.829 472.152 159.829 467.931V358.005C159.829 353.785 156.407 350.363 152.187 350.363Z" fill="white"/>
<path d="M310.965 350.363H201.038C196.818 350.363 193.396 353.785 193.396 358.005V467.931C193.396 472.152 196.818 475.573 201.038 475.573H310.965C315.185 475.573 318.606 472.152 318.606 467.931V358.005C318.606 353.785 315.185 350.363 310.965 350.363Z" fill="white"/>
<path d="M467.93 350.363H358.004C353.783 350.363 350.362 353.785 350.362 358.005V467.931C350.362 472.152 353.783 475.573 358.004 475.573H467.93C472.151 475.573 475.572 472.152 475.572 467.931V358.005C475.572 353.785 472.151 350.363 467.93 350.363Z" fill="white"/>
<path d="M467.93 193.396H358.004C353.783 193.396 350.362 196.818 350.362 201.038V310.965C350.362 315.185 353.783 318.606 358.004 318.606H467.93C472.151 318.606 475.572 315.185 475.572 310.965V201.038C475.572 196.818 472.151 193.396 467.93 193.396Z" fill="white"/>
<path d="M467.93 31.4688H358.004C353.783 31.4688 350.362 34.8901 350.362 39.1105V149.037C350.362 153.257 353.783 156.679 358.004 156.679H467.93C472.151 156.679 475.572 153.257 475.572 149.037V39.1105C475.572 34.8901 472.151 31.4688 467.93 31.4688Z" fill="white"/>
<path d="M310.965 31.4688H201.038C196.818 31.4688 193.396 34.8901 193.396 39.1105V149.037C193.396 153.257 196.818 156.679 201.038 156.679H310.965C315.185 156.679 318.606 153.257 318.606 149.037V39.1105C318.606 34.8901 315.185 31.4688 310.965 31.4688Z" fill="white"/>
<path d="M152.187 31.4688H42.2605C38.0401 31.4688 34.6187 34.8901 34.6187 39.1105V149.037C34.6187 153.257 38.0401 156.679 42.2605 156.679H152.187C156.407 156.679 159.829 153.257 159.829 149.037V39.1105C159.829 34.8901 156.407 31.4688 152.187 31.4688Z" fill="white"/>
</svg>
